<svg width="16" height="16" viewBox="0 0 16 16" fill="none" xmlns="http://www.w3.org/2000/svg">
<path d="M9.47999 1.75568C9.7533 2.03321 10.0351 2.31391 10.3073 2.6031C10.3358 2.63346 10.3193 2.71891 10.3045 2.77364C10.2953 2.80895 10.25 2.83225 10.2211 2.86156C7.82923 5.26259 5.43652 7.66232 3.04298 10.0608C2.88505 10.2186 2.84073 10.4064 2.7848 10.5932C2.51782 11.4827 2.26667 12.3767 2.00075 13.2665C1.9705 13.3682 1.98457 13.4247 2.05562 13.4921C2.2125 13.6418 2.36059 13.8007 2.51853 13.9494C2.5537 13.9829 2.62405 14.0171 2.66274 14.0051C3.61598 13.7255 4.56805 13.441 5.51895 13.1517C5.59942 13.122 5.67174 13.0736 5.73 13.0105C7.81986 10.9152 9.90936 8.81857 11.9985 6.7205C12.3992 6.31939 12.8146 5.93346 13.2342 5.52988C13.5448 5.84377 13.8603 6.16544 14.1783 6.48322C14.2585 6.56302 14.2135 6.61281 14.1533 6.67178C13.8835 6.94048 13.6155 7.2113 13.3464 7.48142C12.8833 7.94585 12.42 8.41064 11.9567 8.87578C10.5966 10.2321 9.23494 11.5876 7.8718 12.9423C7.43598 13.3749 7.00403 13.812 6.54887 14.2234C6.41239 14.3466 6.21049 14.4116 6.02758 14.4666C4.9558 14.7897 3.88191 15.1022 2.80661 15.4179C2.16572 15.6057 1.52765 15.8063 0.881838 15.974C0.336275 16.1152 -0.119591 15.6608 0.0281433 15.1124C0.236379 14.3378 0.47592 13.5719 0.700687 12.8018C0.995453 11.7948 1.29163 10.7892 1.58006 9.78004C1.63078 9.60258 1.72795 9.44201 1.86146 9.31502C2.62757 8.55552 3.38418 7.78649 4.14783 7.02451C5.51613 5.65923 6.88608 4.29547 8.25766 2.93324C8.65444 2.53813 9.06423 2.15608 9.47999 1.75568Z" fill="#6FCF97"/>
<path d="M10.2394 1.15458C10.6189 0.818122 10.9267 0.377865 11.4208 0.140966C11.9811 -0.128767 12.7633 -0.000255318 13.1924 0.431176C13.9908 1.23261 14.7952 2.02839 15.584 2.839C15.8865 3.14968 16.0089 3.53875 15.9984 3.9836C15.9871 4.47046 15.7828 4.84469 15.4437 5.17127C15.2351 5.37251 15.0442 5.59246 14.8567 5.79194C13.3159 4.24415 11.7838 2.70519 10.2394 1.15458Z" fill="#6FCF97"/>
</svg>
