<svg width="92" height="126" viewBox="0 0 92 126" fill="none" xmlns="http://www.w3.org/2000/svg">
<path fill-rule="evenodd" clip-rule="evenodd" d="M17.6169 107.2C16.2869 107.2 15.1938 108.29 15.1938 109.654C15.1938 111.017 16.2869 112.107 17.6169 112.107C18.947 112.107 20.0401 111.017 20.0401 109.654C20.0401 108.29 18.947 107.2 17.6169 107.2ZM13.1938 109.654C13.1938 107.202 15.1659 105.2 17.6169 105.2C20.068 105.2 22.0401 107.202 22.0401 109.654C22.0401 112.105 20.068 114.107 17.6169 114.107C15.1659 114.107 13.1938 112.105 13.1938 109.654Z" fill="black"/>
<path fill-rule="evenodd" clip-rule="evenodd" d="M12.5049 101.502C11.1748 101.502 10.0817 102.592 10.0817 103.955C10.0817 105.318 11.1748 106.408 12.5049 106.408C13.8349 106.408 14.928 105.318 14.928 103.955C14.928 102.592 13.8349 101.502 12.5049 101.502ZM8.08171 103.955C8.08171 101.504 10.0538 99.5018 12.5049 99.5018C14.9559 99.5018 16.928 101.504 16.928 103.955C16.928 106.406 14.9559 108.408 12.5049 108.408C10.0538 108.408 8.08171 106.406 8.08171 103.955Z" fill="black"/>
<path fill-rule="evenodd" clip-rule="evenodd" d="M8.51935 94.9522C7.18929 94.9522 6.09618 96.0423 6.09618 97.4054C6.09618 98.7686 7.18929 99.8586 8.51935 99.8586C9.8494 99.8586 10.9425 98.7686 10.9425 97.4054C10.9425 96.0423 9.8494 94.9522 8.51935 94.9522ZM4.09618 97.4054C4.09618 94.9543 6.06828 92.9522 8.51935 92.9522C10.9704 92.9522 12.9425 94.9543 12.9425 97.4054C12.9425 99.8566 10.9704 101.859 8.51935 101.859C6.06828 101.859 4.09618 99.8566 4.09618 97.4054Z" fill="black"/>
<path fill-rule="evenodd" clip-rule="evenodd" d="M5.7946 87.7749C4.46455 87.7749 3.37144 88.865 3.37144 90.2282C3.37144 91.5913 4.46455 92.6814 5.7946 92.6814C7.12466 92.6814 8.21777 91.5913 8.21777 90.2282C8.21777 88.865 7.12466 87.7749 5.7946 87.7749ZM1.37144 90.2282C1.37144 87.777 3.34353 85.7749 5.7946 85.7749C8.24567 85.7749 10.2178 87.777 10.2178 90.2282C10.2178 92.6793 8.24567 94.6814 5.7946 94.6814C3.34353 94.6814 1.37144 92.6793 1.37144 90.2282Z" fill="black"/>
<path fill-rule="evenodd" clip-rule="evenodd" d="M4.42316 80.2152C3.09311 80.2152 2 81.3053 2 82.6684C2 84.0316 3.09311 85.1217 4.42316 85.1217C5.75322 85.1217 6.84633 84.0316 6.84633 82.6684C6.84633 81.3053 5.75322 80.2152 4.42316 80.2152ZM0 82.6684C0 80.2173 1.9721 78.2152 4.42316 78.2152C6.87423 78.2152 8.84633 80.2173 8.84633 82.6684C8.84633 85.1196 6.87423 87.1217 4.42316 87.1217C1.9721 87.1217 0 85.1196 0 82.6684Z" fill="black"/>
<path fill-rule="evenodd" clip-rule="evenodd" d="M4.45219 72.5292C3.12213 72.5292 2.02902 73.6193 2.02902 74.9824C2.02902 76.3456 3.12213 77.4356 4.45219 77.4356C5.78224 77.4356 6.87535 76.3456 6.87535 74.9824C6.87535 73.6193 5.78224 72.5292 4.45219 72.5292ZM0.0290222 74.9824C0.0290222 72.5312 2.00112 70.5292 4.45219 70.5292C6.90325 70.5292 8.87535 72.5312 8.87535 74.9824C8.87535 77.4336 6.90325 79.4356 4.45219 79.4356C2.00112 79.4356 0.0290222 77.4336 0.0290222 74.9824Z" fill="black"/>
<path fill-rule="evenodd" clip-rule="evenodd" d="M5.88168 64.9805C4.55163 64.9805 3.45852 66.0706 3.45852 67.4337C3.45852 68.7968 4.55163 69.8869 5.88168 69.8869C7.21174 69.8869 8.30485 68.7968 8.30485 67.4337C8.30485 66.0706 7.21174 64.9805 5.88168 64.9805ZM1.45852 67.4337C1.45852 64.9825 3.43062 62.9805 5.88168 62.9805C8.33275 62.9805 10.3048 64.9825 10.3048 67.4337C10.3048 69.8849 8.33275 71.8869 5.88168 71.8869C3.43062 71.8869 1.45852 69.8849 1.45852 67.4337Z" fill="black"/>
<path fill-rule="evenodd" clip-rule="evenodd" d="M8.66084 57.8252C7.33079 57.8252 6.23768 58.9153 6.23768 60.2784C6.23768 61.6415 7.33079 62.7316 8.66084 62.7316C9.9909 62.7316 11.084 61.6415 11.084 60.2784C11.084 58.9153 9.99089 57.8252 8.66084 57.8252ZM4.23768 60.2784C4.23768 57.8272 6.20977 55.8252 8.66084 55.8252C11.1119 55.8252 13.084 57.8272 13.084 60.2784C13.084 62.7296 11.1119 64.7316 8.66084 64.7316C6.20977 64.7316 4.23768 62.7296 4.23768 60.2784Z" fill="black"/>
<path fill-rule="evenodd" clip-rule="evenodd" d="M12.6953 51.3067C11.3653 51.3067 10.2722 52.3968 10.2722 53.7599C10.2722 55.123 11.3653 56.2131 12.6953 56.2131C14.0254 56.2131 15.1185 55.123 15.1185 53.7599C15.1185 52.3968 14.0254 51.3067 12.6953 51.3067ZM8.27219 53.7599C8.27219 51.3087 10.2443 49.3067 12.6953 49.3067C15.1464 49.3067 17.1185 51.3087 17.1185 53.7599C17.1185 56.2111 15.1464 58.2131 12.6953 58.2131C10.2443 58.2131 8.27219 56.2111 8.27219 53.7599Z" fill="black"/>
<path fill-rule="evenodd" clip-rule="evenodd" d="M17.8491 45.6465C16.5191 45.6465 15.426 46.7366 15.426 48.0997C15.426 49.4628 16.5191 50.5529 17.8491 50.5529C19.1792 50.5529 20.2723 49.4628 20.2723 48.0997C20.2723 46.7366 19.1792 45.6465 17.8491 45.6465ZM13.426 48.0997C13.426 45.6485 15.3981 43.6465 17.8491 43.6465C20.3002 43.6465 22.2723 45.6485 22.2723 48.0997C22.2723 50.5509 20.3002 52.5529 17.8491 52.5529C15.3981 52.5529 13.426 50.5509 13.426 48.0997Z" fill="black"/>
<path fill-rule="evenodd" clip-rule="evenodd" d="M23.9481 41.0386C22.618 41.0386 21.5249 42.1287 21.5249 43.4918C21.5249 44.8549 22.618 45.945 23.9481 45.945C25.2781 45.945 26.3712 44.8549 26.3712 43.4918C26.3712 42.1287 25.2781 41.0386 23.9481 41.0386ZM19.5249 43.4918C19.5249 41.0406 21.497 39.0386 23.9481 39.0386C26.3991 39.0386 28.3712 41.0406 28.3712 43.4918C28.3712 45.943 26.3991 47.945 23.9481 47.945C21.497 47.945 19.5249 45.943 19.5249 43.4918Z" fill="black"/>
<path fill-rule="evenodd" clip-rule="evenodd" d="M30.7799 37.6403C29.4498 37.6403 28.3567 38.7303 28.3567 40.0935C28.3567 41.4566 29.4498 42.5467 30.7799 42.5467C32.1099 42.5467 33.2031 41.4566 33.2031 40.0935C33.2031 38.7303 32.1099 37.6403 30.7799 37.6403ZM26.3567 40.0935C26.3567 37.6423 28.3288 35.6403 30.7799 35.6403C33.231 35.6403 35.2031 37.6423 35.2031 40.0935C35.2031 42.5447 33.231 44.5467 30.7799 44.5467C28.3288 44.5467 26.3567 42.5447 26.3567 40.0935Z" fill="black"/>
<path fill-rule="evenodd" clip-rule="evenodd" d="M38.116 35.565C36.786 35.565 35.6929 36.6551 35.6929 38.0183C35.6929 39.3814 36.786 40.4715 38.116 40.4715C39.4461 40.4715 40.5392 39.3814 40.5392 38.0183C40.5392 36.6551 39.4461 35.565 38.116 35.565ZM33.6929 38.0183C33.6929 35.5671 35.665 33.565 38.116 33.565C40.5671 33.565 42.5392 35.5671 42.5392 38.0183C42.5392 40.4694 40.5671 42.4715 38.116 42.4715C35.665 42.4715 33.6929 40.4694 33.6929 38.0183Z" fill="black"/>
<path fill-rule="evenodd" clip-rule="evenodd" d="M45.7043 34.8843C44.3742 34.8843 43.2811 35.9744 43.2811 37.3375C43.2811 38.7006 44.3742 39.7907 45.7043 39.7907C47.0344 39.7907 48.1275 38.7006 48.1275 37.3375C48.1275 35.9744 47.0344 34.8843 45.7043 34.8843ZM41.2811 37.3375C41.2811 34.8863 43.2532 32.8843 45.7043 32.8843C48.1554 32.8843 50.1275 34.8863 50.1275 37.3375C50.1275 39.7887 48.1554 41.7907 45.7043 41.7907C43.2532 41.7907 41.2811 39.7887 41.2811 37.3375Z" fill="black"/>
<path fill-rule="evenodd" clip-rule="evenodd" d="M53.2871 35.6236C51.9571 35.6236 50.864 36.7137 50.864 38.0768C50.864 39.4399 51.9571 40.53 53.2871 40.53C54.6172 40.53 55.7103 39.4399 55.7103 38.0768C55.7103 36.7137 54.6172 35.6236 53.2871 35.6236ZM48.864 38.0768C48.864 35.6256 50.8361 33.6236 53.2871 33.6236C55.7382 33.6236 57.7103 35.6256 57.7103 38.0768C57.7103 40.528 55.7382 42.53 53.2871 42.53C50.8361 42.53 48.864 40.528 48.864 38.0768Z" fill="black"/>
<path fill-rule="evenodd" clip-rule="evenodd" d="M60.6069 37.7556C59.2769 37.7556 58.1838 38.8456 58.1838 40.2088C58.1838 41.5719 59.2769 42.662 60.6069 42.662C61.937 42.662 63.0301 41.5719 63.0301 40.2088C63.0301 38.8456 61.937 37.7556 60.6069 37.7556ZM56.1838 40.2088C56.1838 37.7576 58.1559 35.7556 60.6069 35.7556C63.058 35.7556 65.0301 37.7576 65.0301 40.2088C65.0301 42.6599 63.058 44.662 60.6069 44.662C58.1559 44.662 56.1838 42.6599 56.1838 40.2088Z" fill="black"/>
<path fill-rule="evenodd" clip-rule="evenodd" d="M67.4134 41.2069C66.0833 41.2069 64.9902 42.297 64.9902 43.6602C64.9902 45.0233 66.0833 46.1134 67.4134 46.1134C68.7434 46.1134 69.8365 45.0233 69.8365 43.6602C69.8365 42.297 68.7434 41.2069 67.4134 41.2069ZM62.9902 43.6602C62.9902 41.209 64.9623 39.2069 67.4134 39.2069C69.8644 39.2069 71.8365 41.209 71.8365 43.6602C71.8365 46.1113 69.8644 48.1134 67.4134 48.1134C64.9623 48.1134 62.9902 46.1113 62.9902 43.6602Z" fill="black"/>
<path fill-rule="evenodd" clip-rule="evenodd" d="M73.476 45.8625C72.146 45.8625 71.0528 46.9525 71.0528 48.3157C71.0528 49.6788 72.146 50.7689 73.476 50.7689C74.8061 50.7689 75.8992 49.6788 75.8992 48.3157C75.8992 46.9525 74.8061 45.8625 73.476 45.8625ZM69.0528 48.3157C69.0528 45.8645 71.0249 43.8625 73.476 43.8625C75.9271 43.8625 77.8992 45.8645 77.8992 48.3157C77.8992 50.7668 75.9271 52.7689 73.476 52.7689C71.0249 52.7689 69.0528 50.7668 69.0528 48.3157Z" fill="black"/>
<path fill-rule="evenodd" clip-rule="evenodd" d="M78.5863 51.5611C77.2562 51.5611 76.1631 52.6512 76.1631 54.0143C76.1631 55.3774 77.2562 56.4675 78.5863 56.4675C79.9163 56.4675 81.0094 55.3774 81.0094 54.0143C81.0094 52.6512 79.9163 51.5611 78.5863 51.5611ZM74.1631 54.0143C74.1631 51.5631 76.1352 49.5611 78.5863 49.5611C81.0373 49.5611 83.0094 51.5631 83.0094 54.0143C83.0094 56.4655 81.0373 58.4675 78.5863 58.4675C76.1352 58.4675 74.1631 56.4655 74.1631 54.0143Z" fill="black"/>
<path fill-rule="evenodd" clip-rule="evenodd" d="M82.5718 58.1106C81.2417 58.1106 80.1486 59.2007 80.1486 60.5638C80.1486 61.927 81.2417 63.017 82.5718 63.017C83.9019 63.017 84.995 61.927 84.995 60.5638C84.995 59.2007 83.9019 58.1106 82.5718 58.1106ZM78.1486 60.5638C78.1486 58.1127 80.1207 56.1106 82.5718 56.1106C85.0229 56.1106 86.995 58.1127 86.995 60.5638C86.995 63.015 85.0229 65.017 82.5718 65.017C80.1207 65.017 78.1486 63.015 78.1486 60.5638Z" fill="black"/>
<path fill-rule="evenodd" clip-rule="evenodd" d="M85.2984 65.2879C83.9683 65.2879 82.8752 66.378 82.8752 67.7411C82.8752 69.1043 83.9683 70.1943 85.2984 70.1943C86.6284 70.1943 87.7215 69.1043 87.7215 67.7411C87.7215 66.378 86.6284 65.2879 85.2984 65.2879ZM80.8752 67.7411C80.8752 65.2899 82.8473 63.2879 85.2984 63.2879C87.7494 63.2879 89.7215 65.2899 89.7215 67.7411C89.7215 70.1923 87.7494 72.1943 85.2984 72.1943C82.8473 72.1943 80.8752 70.1923 80.8752 67.7411Z" fill="black"/>
<path fill-rule="evenodd" clip-rule="evenodd" d="M86.668 72.8477C85.3379 72.8477 84.2448 73.9377 84.2448 75.3009C84.2448 76.664 85.3379 77.7541 86.668 77.7541C87.998 77.7541 89.0911 76.664 89.0911 75.3009C89.0911 73.9377 87.998 72.8477 86.668 72.8477ZM82.2448 75.3009C82.2448 72.8497 84.2169 70.8477 86.668 70.8477C89.119 70.8477 91.0911 72.8497 91.0911 75.3009C91.0911 77.752 89.119 79.7541 86.668 79.7541C84.2169 79.7541 82.2448 77.752 82.2448 75.3009Z" fill="black"/>
<path fill-rule="evenodd" clip-rule="evenodd" d="M86.639 80.5336C85.3089 80.5336 84.2158 81.6237 84.2158 82.9869C84.2158 84.35 85.3089 85.4401 86.639 85.4401C87.969 85.4401 89.0621 84.35 89.0621 82.9869C89.0621 81.6237 87.969 80.5336 86.639 80.5336ZM82.2158 82.9869C82.2158 80.5357 84.1879 78.5336 86.639 78.5336C89.09 78.5336 91.0621 80.5357 91.0621 82.9869C91.0621 85.438 89.09 87.4401 86.639 87.4401C84.1879 87.4401 82.2158 85.438 82.2158 82.9869Z" fill="black"/>
<path fill-rule="evenodd" clip-rule="evenodd" d="M85.2113 88.0824C83.8812 88.0824 82.7881 89.1725 82.7881 90.5356C82.7881 91.8987 83.8812 92.9888 85.2113 92.9888C86.5413 92.9888 87.6344 91.8987 87.6344 90.5356C87.6344 89.1725 86.5413 88.0824 85.2113 88.0824ZM80.7881 90.5356C80.7881 88.0844 82.7602 86.0824 85.2113 86.0824C87.6623 86.0824 89.6344 88.0844 89.6344 90.5356C89.6344 92.9868 87.6623 94.9888 85.2113 94.9888C82.7602 94.9888 80.7881 92.9868 80.7881 90.5356Z" fill="black"/>
<path fill-rule="evenodd" clip-rule="evenodd" d="M82.4321 95.2377C81.1021 95.2377 80.0089 96.3278 80.0089 97.6909C80.0089 99.054 81.1021 100.144 82.4321 100.144C83.7622 100.144 84.8553 99.054 84.8553 97.6909C84.8553 96.3278 83.7622 95.2377 82.4321 95.2377ZM78.0089 97.6909C78.0089 95.2397 79.981 93.2377 82.4321 93.2377C84.8832 93.2377 86.8553 95.2397 86.8553 97.6909C86.8553 100.142 84.8832 102.144 82.4321 102.144C79.981 102.144 78.0089 100.142 78.0089 97.6909Z" fill="black"/>
<path fill-rule="evenodd" clip-rule="evenodd" d="M78.3958 101.756C77.0657 101.756 75.9726 102.846 75.9726 104.209C75.9726 105.572 77.0657 106.663 78.3958 106.663C79.7259 106.663 80.819 105.572 80.819 104.209C80.819 102.846 79.7259 101.756 78.3958 101.756ZM73.9726 104.209C73.9726 101.758 75.9447 99.7561 78.3958 99.7561C80.8469 99.7561 82.819 101.758 82.819 104.209C82.819 106.661 80.8469 108.663 78.3958 108.663C75.9447 108.663 73.9726 106.661 73.9726 104.209Z" fill="black"/>
<path fill-rule="evenodd" clip-rule="evenodd" d="M73.242 107.416C71.9119 107.416 70.8188 108.506 70.8188 109.87C70.8188 111.233 71.9119 112.323 73.242 112.323C74.5721 112.323 75.6652 111.233 75.6652 109.87C75.6652 108.506 74.5721 107.416 73.242 107.416ZM68.8188 109.87C68.8188 107.418 70.7909 105.416 73.242 105.416C75.6931 105.416 77.6652 107.418 77.6652 109.87C77.6652 112.321 75.6931 114.323 73.242 114.323C70.7909 114.323 68.8188 112.321 68.8188 109.87Z" fill="black"/>
<path fill-rule="evenodd" clip-rule="evenodd" d="M67.1449 112.024C65.8148 112.024 64.7217 113.114 64.7217 114.477C64.7217 115.841 65.8148 116.931 67.1449 116.931C68.4749 116.931 69.568 115.841 69.568 114.477C69.568 113.114 68.4749 112.024 67.1449 112.024ZM62.7217 114.477C62.7217 112.026 64.6938 110.024 67.1449 110.024C69.5959 110.024 71.568 112.026 71.568 114.477C71.568 116.929 69.5959 118.931 67.1449 118.931C64.6938 118.931 62.7217 116.929 62.7217 114.477Z" fill="black"/>
<path fill-rule="evenodd" clip-rule="evenodd" d="M60.3131 115.423C58.983 115.423 57.8899 116.513 57.8899 117.876C57.8899 119.239 58.983 120.329 60.3131 120.329C61.6431 120.329 62.7362 119.239 62.7362 117.876C62.7362 116.513 61.6431 115.423 60.3131 115.423ZM55.8899 117.876C55.8899 115.425 57.862 113.423 60.3131 113.423C62.7641 113.423 64.7362 115.425 64.7362 117.876C64.7362 120.327 62.7641 122.329 60.3131 122.329C57.862 122.329 55.8899 120.327 55.8899 117.876Z" fill="black"/>
<path fill-rule="evenodd" clip-rule="evenodd" d="M52.9769 117.498C51.6469 117.498 50.5538 118.588 50.5538 119.951C50.5538 121.314 51.6469 122.404 52.9769 122.404C54.307 122.404 55.4001 121.314 55.4001 119.951C55.4001 118.588 54.307 117.498 52.9769 117.498ZM48.5538 119.951C48.5538 117.5 50.5259 115.498 52.9769 115.498C55.428 115.498 57.4001 117.5 57.4001 119.951C57.4001 122.402 55.428 124.404 52.9769 124.404C50.5259 124.404 48.5538 122.402 48.5538 119.951Z" fill="black"/>
<path fill-rule="evenodd" clip-rule="evenodd" d="M45.3887 118.179C44.0586 118.179 42.9655 119.269 42.9655 120.632C42.9655 121.995 44.0586 123.085 45.3887 123.085C46.7187 123.085 47.8118 121.995 47.8118 120.632C47.8118 119.269 46.7187 118.179 45.3887 118.179ZM40.9655 120.632C40.9655 118.181 42.9376 116.179 45.3887 116.179C47.8397 116.179 49.8118 118.181 49.8118 120.632C49.8118 123.083 47.8397 125.085 45.3887 125.085C42.9376 125.085 40.9655 123.083 40.9655 120.632Z" fill="black"/>
<path fill-rule="evenodd" clip-rule="evenodd" d="M37.804 117.439C36.4739 117.439 35.3808 118.529 35.3808 119.892C35.3808 121.256 36.4739 122.346 37.804 122.346C39.1341 122.346 40.2272 121.256 40.2272 119.892C40.2272 118.529 39.1341 117.439 37.804 117.439ZM33.3808 119.892C33.3808 117.441 35.3529 115.439 37.804 115.439C40.2551 115.439 42.2272 117.441 42.2272 119.892C42.2272 122.344 40.2551 124.346 37.804 124.346C35.3529 124.346 33.3808 122.344 33.3808 119.892Z" fill="black"/>
<path fill-rule="evenodd" clip-rule="evenodd" d="M30.4842 115.307C29.1541 115.307 28.061 116.397 28.061 117.761C28.061 119.124 29.1541 120.214 30.4842 120.214C31.8142 120.214 32.9074 119.124 32.9074 117.761C32.9074 116.397 31.8142 115.307 30.4842 115.307ZM26.061 117.761C26.061 115.309 28.0331 113.307 30.4842 113.307C32.9353 113.307 34.9074 115.309 34.9074 117.761C34.9074 120.212 32.9353 122.214 30.4842 122.214C28.0331 122.214 26.061 120.212 26.061 117.761Z" fill="black"/>
<path fill-rule="evenodd" clip-rule="evenodd" d="M23.6778 111.856C22.3477 111.856 21.2546 112.946 21.2546 114.309C21.2546 115.672 22.3477 116.762 23.6778 116.762C25.0078 116.762 26.1009 115.672 26.1009 114.309C26.1009 112.946 25.0078 111.856 23.6778 111.856ZM19.2546 114.309C19.2546 111.858 21.2267 109.856 23.6778 109.856C26.1288 109.856 28.1009 111.858 28.1009 114.309C28.1009 116.76 26.1288 118.762 23.6778 118.762C21.2267 118.762 19.2546 116.76 19.2546 114.309Z" fill="black"/>
<path fill-rule="evenodd" clip-rule="evenodd" d="M45.5456 17.3675C44.3175 17.3675 43.3065 18.3746 43.3065 19.6359V30.5665C43.3065 31.8278 44.3175 32.8349 45.5456 32.8349C46.7737 32.8349 47.7846 31.8278 47.7846 30.5665V19.6359C47.7846 18.3746 46.7737 17.3675 45.5456 17.3675ZM41.3065 19.6359C41.3065 17.2871 43.1959 15.3675 45.5456 15.3675C47.8952 15.3675 49.7846 17.2871 49.7846 19.6359V30.5665C49.7846 32.9153 47.8952 34.8349 45.5456 34.8349C43.1959 34.8349 41.3065 32.9153 41.3065 30.5665V19.6359Z" fill="black"/>
<path fill-rule="evenodd" clip-rule="evenodd" d="M45.5465 10.2818C44.3176 10.2818 43.3065 11.2891 43.3065 12.5501C43.3065 13.8112 44.3176 14.8185 45.5465 14.8185C46.7753 14.8185 47.7864 13.8112 47.7864 12.5501C47.7864 11.2891 46.7753 10.2818 45.5465 10.2818ZM41.3065 12.5501C41.3065 10.201 43.1966 8.28176 45.5465 8.28176C47.8964 8.28176 49.7864 10.201 49.7864 12.5501C49.7864 14.8992 47.8964 16.8185 45.5465 16.8185C43.1966 16.8185 41.3065 14.8992 41.3065 12.5501Z" fill="black"/>
</svg>
